<?xml version="1.0" standalone="no"?>
<!DOCTYPE svg PUBLIC "-//W3C//DTD SVG 20010904//EN"
 "http://www.w3.org/TR/2001/REC-SVG-20010904/DTD/svg10.dtd">
<svg version="1.0" xmlns="http://www.w3.org/2000/svg"
 width="500.000000pt" height="500.000000pt" viewBox="0 0 500.000000 500.000000"
 preserveAspectRatio="xMidYMid meet">

<g transform="translate(0.000000,500.000000) scale(0.100000,-0.100000)"
fill="#000000" stroke="none">
<path d="M2310 4850 c-308 -23 -653 -123 -920 -267 -476 -257 -856 -673 -1063
-1164 -80 -189 -146 -434 -168 -624 -15 -130 -16 -453 0 -580 41 -349 186
-738 380 -1024 139 -203 363 -442 533 -566 84 -61 96 -74 102 -107 4 -23 17
-45 37 -62 26 -22 40 -26 95 -26 53 0 76 -6 127 -31 181 -92 390 -163 612
-209 131 -27 178 -32 365 -37 252 -7 396 5 591 48 195 42 409 118 553 194 58
30 75 35 137 35 67 0 73 2 105 34 23 23 34 43 34 63 0 26 13 39 93 99 187 140
404 371 541 578 56 84 70 108 138 236 77 146 148 346 193 545 47 208 59 346
52 605 -5 195 -9 231 -41 380 -102 482 -309 863 -652 1204 -190 189 -374 320
-619 441 -238 117 -509 199 -741 224 -140 15 -358 20 -484 11z m496 -335 c382
-56 728 -214 1034 -472 58 -49 149 -141 204 -204 297 -344 459 -733 497 -1196
42 -502 -132 -1044 -463 -1438 -73 -88 -239 -255 -252 -255 -4 0 -21 10 -37
23 l-31 22 -1256 0 c-1207 0 -1258 -1 -1284 -19 -28 -18 -28 -18 -67 14 -60
47 -184 183 -265 290 -195 260 -321 551 -381 880 -26 143 -31 444 -11 600 68
516 317 969 721 1308 308 259 692 418 1110 461 118 13 345 6 481 -14z m-1344
-3615 c19 0 33 -34 21 -52 -5 -8 -29 -13 -63 -13 -48 0 -56 -3 -67 -25 -15
-30 -17 -158 -3 -194 7 -20 16 -26 40 -26 29 0 30 2 30 45 0 39 -3 45 -21 45
-17 0 -20 5 -17 33 3 31 4 32 53 32 l50 0 0 -105 0 -105 -55 -8 c-38 -6 -67
-4 -95 5 -55 18 -67 58 -63 200 2 90 6 111 24 135 23 31 61 44 114 37 19 -2
43 -4 52 -4z m1995 -15 c29 -19 35 -59 31 -199 -3 -104 -5 -118 -26 -138 -19
-19 -33 -23 -87 -23 -54 0 -68 4 -87 23 -22 21 -23 30 -23 166 0 126 2 146 19
164 30 34 126 37 173 7z m226 19 c33 -6 37 -10 37 -35 0 -28 -2 -29 -48 -29
-53 0 -72 -12 -72 -47 0 -25 26 -43 63 -43 44 0 67 -29 73 -90 10 -105 -35
-147 -143 -134 -50 6 -53 8 -53 35 0 27 2 28 58 31 l57 3 0 40 c0 40 0 40 -50
50 -62 14 -77 38 -72 117 5 91 46 119 150 102z m-1946 -169 c18 -88 35 -170
38 -182 5 -21 2 -23 -34 -23 -36 0 -39 2 -45 35 -7 34 -8 35 -51 35 -38 0 -45
-3 -45 -19 0 -38 -11 -51 -46 -51 -19 0 -34 4 -34 8 0 5 16 87 35 182 19 95
35 175 35 177 0 2 26 3 57 1 l56 -3 34 -160z m253 135 c0 -29 -1 -30 -50 -30
l-50 0 0 -45 0 -45 45 0 c45 0 45 0 45 -35 0 -35 0 -35 -45 -35 l-45 0 0 -45
0 -45 50 0 c49 0 50 -1 50 -30 l0 -30 -90 0 -90 0 0 185 0 185 90 0 90 0 0
-30z m130 -120 l0 -150 45 0 c45 0 45 0 45 -35 l0 -35 -85 0 -85 0 0 185 0
185 40 0 40 0 0 -150z m417 128 c20 -19 23 -31 23 -93 0 -47 -5 -78 -15 -92
-14 -20 -14 -28 1 -80 9 -32 19 -64 21 -70 4 -9 -7 -13 -34 -13 l-40 0 -18 65
c-13 51 -21 65 -36 65 -17 0 -19 -8 -19 -65 l0 -65 -40 0 -40 0 0 185 0 185
87 0 c75 0 90 -3 110 -22z m271 -140 c18 -90 35 -173 38 -185 6 -21 3 -23 -35
-23 -36 0 -41 3 -41 23 0 37 -14 49 -56 45 -34 -3 -39 -6 -44 -33 -5 -27 -10
-30 -44 -33 -36 -3 -38 -2 -34 20 3 13 20 96 38 186 l34 162 56 0 56 0 32
-162z m212 37 c13 -69 25 -123 28 -120 3 2 14 57 26 122 l21 118 58 3 57 3 0
-186 0 -185 -35 0 -35 0 0 132 c0 72 -2 129 -5 126 -4 -3 -55 -240 -55 -254 0
-2 -15 -4 -34 -4 -38 0 -31 -18 -73 185 l-18 90 -3 -137 -3 -138 -34 0 -35 0
0 185 0 185 59 0 58 0 23 -125z"/>
<path d="M2305 4413 c-3 -10 -31 -125 -60 -256 -30 -130 -57 -242 -60 -247 -3
-6 -13 -10 -21 -10 -31 0 -171 -53 -267 -101 l-97 -49 -221 140 c-152 96 -226
137 -236 131 -32 -17 -273 -265 -273 -280 0 -9 61 -112 135 -229 74 -117 135
-216 135 -220 0 -3 -20 -45 -45 -93 -24 -47 -60 -133 -79 -190 -20 -57 -39
-105 -43 -106 -4 -2 -118 -28 -252 -58 -135 -30 -249 -61 -253 -68 -4 -6 -8
-96 -8 -198 0 -144 3 -189 13 -198 8 -6 117 -33 243 -61 126 -28 237 -54 248
-58 12 -5 28 -37 48 -97 16 -50 51 -136 79 -192 39 -79 48 -106 40 -120 -5
-11 -66 -108 -135 -217 -69 -108 -126 -205 -126 -214 0 -22 260 -282 281 -282
9 0 74 37 145 81 71 45 168 106 216 136 l88 55 102 -51 c57 -28 141 -62 188
-77 47 -15 89 -30 93 -34 5 -4 19 -52 31 -106 l21 -99 276 -3 275 -2 25 106
24 106 103 34 c56 18 142 54 190 79 49 25 91 45 95 45 4 0 100 -59 214 -132
115 -72 218 -134 231 -136 18 -4 46 19 143 114 66 66 127 131 135 145 13 26 9
35 -126 248 l-140 221 50 98 c27 55 64 143 81 196 25 76 36 97 53 101 11 3
124 28 251 56 126 28 233 53 237 55 4 3 8 95 8 204 0 180 -2 200 -17 208 -10
5 -127 33 -260 62 l-241 53 -32 100 c-17 54 -53 142 -80 195 l-50 96 133 210
c74 116 137 220 140 230 6 15 -19 46 -120 148 -71 71 -136 134 -146 139 -15 8
-59 -16 -230 -124 -117 -73 -217 -136 -223 -140 -6 -4 -54 15 -106 41 -52 27
-139 63 -194 81 l-100 33 -54 241 c-29 133 -57 250 -62 260 -8 15 -28 17 -207
17 -180 0 -200 -2 -206 -17z m332 -894 c454 -61 792 -431 819 -894 16 -270
-90 -532 -295 -727 -183 -176 -402 -262 -661 -260 -695 5 -1144 743 -833 1367
52 103 112 182 201 266 209 196 489 286 769 248z"/>
<path d="M2363 3435 c-209 -37 -413 -161 -539 -328 -55 -73 -127 -217 -150
-302 -10 -35 -18 -115 -21 -195 -4 -114 -2 -149 16 -223 77 -324 324 -571 648
-648 109 -26 276 -28 377 -5 325 76 571 314 658 636 31 117 31 308 -1 425
-101 375 -422 634 -806 650 -62 3 -131 -1 -182 -10z m235 -150 c47 -42 93
-125 122 -222 12 -40 23 -73 23 -73 1 0 27 7 57 15 82 22 198 29 248 16 24 -7
60 -27 80 -46 34 -31 37 -38 36 -87 0 -69 -45 -154 -126 -243 l-60 -65 64 -69
c81 -88 122 -166 123 -237 0 -58 -21 -91 -80 -122 -40 -22 -189 -20 -274 2
-66 18 -80 14 -81 -22 0 -27 -62 -172 -91 -211 -57 -79 -138 -103 -207 -61
-46 28 -105 124 -137 224 -15 48 -29 86 -32 86 -3 0 -33 -7 -67 -16 -91 -24
-221 -24 -270 1 -121 61 -104 197 46 360 l60 65 -60 65 c-114 125 -155 245
-106 312 40 54 79 68 184 67 82 -1 119 -6 201 -30 13 -4 22 11 39 68 30 100
76 183 124 224 34 29 47 34 93 34 46 0 58 -4 91 -35z"/>
<path d="M2439 3221 c-37 -40 -94 -166 -101 -225 -3 -26 2 -29 82 -62 l85 -35
80 32 c44 18 84 35 88 39 12 10 -38 159 -72 211 -56 90 -103 101 -162 40z"/>
<path d="M1938 2940 c-36 -28 -37 -69 -3 -137 36 -72 139 -181 158 -168 143
100 137 92 153 232 l6 61 -38 12 c-22 6 -86 14 -144 17 -97 5 -107 4 -132 -17z"/>
<path d="M2828 2946 c-32 -7 -60 -15 -64 -18 -10 -11 16 -192 29 -200 7 -4 39
-27 72 -52 32 -25 62 -46 66 -46 14 0 111 114 140 164 38 67 39 117 3 145 -22
18 -40 21 -108 20 -44 0 -107 -6 -138 -13z"/>
<path d="M2316 2888 c-8 -26 -16 -98 -11 -98 12 0 115 62 115 70 0 7 -77 40
-93 40 -4 0 -9 -6 -11 -12z"/>
<path d="M2628 2883 c-21 -9 -38 -19 -38 -23 0 -10 110 -73 116 -67 3 3 1 26
-3 53 -10 55 -19 60 -75 37z"/>
<path d="M2420 2779 c-139 -76 -130 -62 -130 -200 l0 -119 41 -25 c22 -15 70
-43 106 -62 l66 -37 61 32 c34 18 82 46 109 62 l47 30 0 119 c0 119 0 120 -27
139 -46 32 -174 102 -186 102 -7 0 -46 -19 -87 -41z"/>
<path d="M2174 2615 l-39 -35 40 -35 c22 -19 43 -35 48 -35 4 0 7 32 7 70 0
39 -4 70 -8 70 -5 0 -26 -16 -48 -35z"/>
<path d="M2785 2580 c0 -38 2 -70 5 -70 3 0 23 16 45 35 l40 35 -39 35 c-22
19 -42 35 -45 35 -3 0 -6 -31 -6 -70z"/>
<path d="M2020 2473 c-102 -111 -136 -207 -89 -249 30 -27 146 -31 245 -9 l77
17 -7 66 c-12 122 -12 123 -87 180 -38 28 -73 52 -78 52 -5 0 -32 -25 -61 -57z"/>
<path d="M2849 2477 c-72 -56 -70 -53 -85 -183 l-6 -62 70 -16 c104 -24 212
-22 246 5 34 27 34 73 1 138 -27 54 -130 172 -149 170 -6 0 -41 -24 -77 -52z"/>
<path d="M2306 2328 c11 -78 8 -76 92 -41 l35 15 -62 34 c-34 19 -64 34 -66
34 -3 0 -3 -19 1 -42z"/>
<path d="M2643 2338 c-29 -16 -53 -33 -53 -37 0 -11 93 -42 101 -34 10 12 21
103 12 102 -4 0 -32 -14 -60 -31z"/>
<path d="M2412 2225 c-40 -18 -75 -35 -77 -37 -10 -10 47 -162 80 -213 56 -88
97 -97 156 -36 37 39 94 166 101 224 3 25 -3 30 -77 62 -44 19 -87 35 -95 34
-8 -1 -48 -16 -88 -34z"/>
<path d="M3340 815 c-5 -14 -10 -59 -10 -100 0 -98 11 -127 47 -123 33 4 41
27 41 123 0 96 -8 119 -41 123 -21 3 -29 -2 -37 -23z"/>
<path d="M1632 756 c-16 -86 -16 -86 17 -86 l29 0 -14 71 c-7 40 -15 73 -17
75 -2 2 -9 -25 -15 -60z"/>
<path d="M2427 833 c-4 -3 -7 -30 -7 -60 0 -49 2 -53 23 -53 33 0 47 18 47 62
0 27 -5 40 -19 48 -23 12 -35 13 -44 3z"/>
<path d="M2706 779 c-4 -24 -9 -59 -12 -76 -6 -32 -5 -33 26 -33 25 0 30 3 26
18 -2 9 -8 37 -11 62 -11 68 -21 79 -29 29z"/>
</g>
</svg>
